<svg width="31" height="25" viewBox="0 0 31 25" fill="none" xmlns="http://www.w3.org/2000/svg">
<path d="M30.6958 11.5073L30.7054 11.5025L26.2004 2.59577C25.8363 1.87586 25.1091 1.42872 24.3025 1.42872H23.4464V0.600746C23.4464 0.268949 23.1774 0 22.8456 0H8.15445C7.82266 0 7.55371 0.268949 7.55371 0.600746V1.42872H6.69751C5.89097 1.42872 5.1638 1.87586 4.79961 2.59577L0.294561 11.5025L0.304188 11.5073C0.111225 11.8251 0 12.1978 0 12.596V22.0055C0 23.1657 0.943926 24.1096 2.10413 24.1096H28.8959C30.0561 24.1096 31 23.1657 31 22.0055V12.596C31 12.1978 30.8888 11.8251 30.6958 11.5073ZM23.4463 2.76372H24.3025C24.6027 2.76372 24.8734 2.93029 25.0091 3.19839L28.6982 10.492H26.1897V8.24776C26.1897 7.91596 25.9208 7.64701 25.589 7.64701H24.8458V4.42428C24.8458 4.09248 24.5768 3.82354 24.245 3.82354H23.4463V2.76372ZM24.9883 8.84844V10.4919H21.8181C21.2742 10.4919 20.7783 10.8124 20.5548 11.3082L19.6892 13.2282C19.681 13.2463 19.6629 13.258 19.643 13.258H11.3571C11.3372 13.258 11.3191 13.2463 11.3108 13.2281L10.4453 11.3083C10.2218 10.8124 9.72589 10.4919 9.18193 10.4919H6.01176V8.84844H24.9883ZM8.7552 1.20149H22.2448V3.82348H8.7552V1.20149ZM23.6443 5.02497V7.64695H7.35572V5.02497H23.6443ZM5.99087 3.19839C6.1265 2.93023 6.39726 2.76372 6.69751 2.76372H7.55371V3.82348H6.75497C6.42318 3.82348 6.15423 4.09242 6.15423 4.42422V7.64695H5.41101C5.07922 7.64695 4.81027 7.9159 4.81027 8.2477V10.4919H2.30175L5.99087 3.19839ZM28.8959 22.7745H2.10413C1.68005 22.7745 1.335 22.4295 1.335 22.0055V12.596C1.335 12.172 1.67999 11.827 2.10413 11.827H9.18193C9.20179 11.827 9.22002 11.8387 9.22825 11.857L10.0938 13.7768C10.3173 14.2727 10.8131 14.593 11.3571 14.593H19.6429C20.1869 14.593 20.6828 14.2726 20.9062 13.7768L21.7718 11.857V11.8569C21.78 11.8387 21.7981 11.827 21.8181 11.827H28.8959C29.3199 11.827 29.6649 12.172 29.6649 12.596V22.0055H29.6649C29.665 22.4296 29.32 22.7745 28.8959 22.7745Z" fill="#215968"/>
</svg>
