<svg width="33" height="33" viewBox="0 0 33 33" fill="none" xmlns="http://www.w3.org/2000/svg">
<g clip-path="url(#clip0)">
<path d="M34.4354 16.5751H31.6435C32.8042 13.9401 32.6787 11.807 32.2395 10.3641C31.4867 7.79183 28.9458 5 25.1816 5C24.1778 5 23.174 5.18821 22.1388 5.56464C20.3508 6.22338 19.1587 6.94487 18.6255 7.32129C18.0922 6.94487 16.9316 6.22338 15.1122 5.56464C14.077 5.18821 13.0418 5 12.0694 5C8.30513 5 5.76426 7.79183 5.01141 10.3641C4.57224 11.9011 4.4154 14.2224 5.88973 17.1397H2.5019C2.21958 17.1397 2 17.3593 2 17.6416C2 17.924 2.21958 18.1435 2.5019 18.1435H6.48574C6.64259 18.4259 6.8308 18.7082 7.05038 18.9905C10.3127 23.6958 17.4021 28.8089 18.6882 29.1226V29.154C18.6882 29.154 18.7196 29.154 18.751 29.1226C18.7823 29.1226 18.8137 29.1226 18.8451 29.1226V29.0913C19.943 28.558 26.75 24.1664 30.326 18.9591C30.6711 18.4886 30.9534 18.0181 31.2044 17.5475H34.4981C34.7804 17.5475 35 17.3279 35 17.0456C35 16.7633 34.7177 16.5751 34.4354 16.5751ZM29.4164 18.4259C26.0913 23.288 19.9743 27.2091 18.6568 28.0561C17.308 27.2091 11.2224 23.2567 7.86597 18.4259C7.80323 18.3318 7.74049 18.2376 7.67776 18.1435H12.289C12.4772 18.1435 12.6654 18.0494 12.7595 17.8612L14.8612 13.7205L18.1549 22.1587C18.2177 22.347 18.4373 22.4724 18.6255 22.4724C18.6255 22.4724 18.6255 22.4724 18.6568 22.4724C18.8764 22.4724 19.0646 22.3156 19.1274 22.096L22.0133 12.2148L23.5504 17.2025C23.6131 17.3907 23.77 17.5162 23.9582 17.5475C24.1464 17.5789 24.3346 17.4848 24.4601 17.3279L25.6835 15.5399L26.7186 17.2966C26.8127 17.4534 26.9696 17.5475 27.1578 17.5475H29.981C29.7928 17.8612 29.6046 18.1435 29.4164 18.4259ZM30.5456 16.5751H27.4715L26.1854 14.3793C26.0913 14.2224 25.9344 14.1283 25.7462 14.1283C25.558 14.1283 25.4011 14.1911 25.307 14.3479L24.2405 15.9164L22.5152 10.3013C22.4525 10.0817 22.2329 9.95627 22.0133 9.92491C21.7937 9.92491 21.5741 10.0817 21.5114 10.3013L18.5941 20.3707L15.4259 12.2776C15.3631 12.0894 15.1749 11.9639 14.9867 11.9639C14.7671 11.9639 14.6103 12.058 14.5162 12.2462L12.038 17.1084H7.05038C5.79563 14.8184 5.45057 12.6226 6.01521 10.6464C6.67395 8.4192 8.8384 6.03517 12.1008 6.03517C12.9791 6.03517 13.8888 6.22338 14.7985 6.53707C17.0884 7.38403 18.3118 8.35646 18.3432 8.35646C18.5314 8.51331 18.7823 8.51331 18.9705 8.35646C18.9705 8.35646 20.1939 7.38403 22.5152 6.53707C23.4249 6.19202 24.3346 6.03517 25.2129 6.03517C28.4439 6.03517 30.6397 8.4192 31.2985 10.6464C31.8318 12.4658 31.5494 14.4734 30.5456 16.5751Z" fill="#215968"/>
</g>
<defs>
<clipPath id="clip0">
<rect width="33" height="33" fill="white" transform="matrix(-1 0 0 1 33 0)"/>
</clipPath>
</defs>
</svg>
