<svg width="37" height="37" viewBox="0 0 37 37" fill="none" xmlns="http://www.w3.org/2000/svg">
<path d="M4.70058 11.0446L13.2625 12.1453C13.5613 12.904 15.0669 16.6385 15.35 17.3068C15.35 17.3068 15.35 17.3068 15.346 17.3068C12.8655 18.5333 10.3849 19.7559 7.90442 20.9824C8.76533 20.8252 9.63804 20.7465 10.5147 20.7465C11.6625 20.7465 12.7868 20.8841 13.86 21.1554C16.0261 21.7057 17.9837 22.5862 19.8746 23.4393C21.561 24.198 23.1571 24.9175 24.7492 25.3302C24.9732 25.3892 25.1894 25.4403 25.4056 25.4835C23.5187 21.6192 18.4437 11.2058 17.4413 8.91394C16.9695 7.83289 16.3209 7.43192 15.4011 7.31398L5.34532 6.02066C3.95765 5.84376 2.68791 6.8226 2.50707 8.21027C2.33407 9.59795 3.31291 10.8677 4.70058 11.0446Z" fill="#215968"/>
<path d="M0.655487 29.104C0.934595 29.3045 1.25301 29.3989 1.57143 29.3989C1.64219 29.3989 1.70902 29.3949 1.77585 29.3832C2.19254 29.3281 2.58565 29.108 2.84904 28.7424C3.86719 27.3232 5.44356 26.2068 7.27938 25.5935C8.33291 25.2437 9.43362 25.0668 10.5147 25.0668C14.434 25.0668 17.7951 27.4097 21.333 28.7581C23.2278 29.4814 25.2051 30.016 27.3554 30.016C28.2596 30.016 29.1952 29.9217 30.1662 29.7055C32.4502 29.2023 34.4078 28.1173 35.823 26.596C36.1611 26.2304 36.4677 25.8451 36.739 25.4324C37.2185 24.709 37.0181 23.7341 36.2947 23.2545C36.0274 23.0776 35.7287 22.9951 35.4299 22.9951C34.9189 22.9951 34.4196 23.2427 34.1169 23.6988C33.9951 23.8835 33.8614 24.0604 33.7159 24.2334C32.7332 25.4048 31.259 26.2461 29.49 26.6353C27.8586 26.993 26.0582 26.8869 24.4504 26.4702C22.76 26.0299 21.1247 25.2948 19.3871 24.5125C17.5395 23.683 15.6329 22.8221 13.5652 22.2954C12.5824 22.0438 11.5525 21.9219 10.5107 21.9219C9.09161 21.9219 7.6489 22.1538 6.27695 22.6099C5.07797 23.0108 3.96547 23.569 2.96697 24.2727C1.91344 25.0157 1.01322 25.9002 0.289896 26.9066C0.242722 26.9734 0.203412 27.0402 0.168032 27.111C-0.173973 27.7911 0.0147191 28.6441 0.655487 29.104Z" fill="#215968"/>
<path d="M29.1244 21.8079C32.1878 21.8079 34.6712 19.3245 34.6712 16.2611C34.6712 13.1977 32.1878 10.7144 29.1244 10.7144C26.061 10.7144 23.5777 13.1977 23.5777 16.2611C23.5777 19.3245 26.061 21.8079 29.1244 21.8079Z" fill="#215968"/>
</svg>
